<mxfile host="app.diagrams.net" agent="Mozilla/5.0 (Windows NT 10.0; Win64; x64) AppleWebKit/537.36 (KHTML, like Gecko) Chrome/129.0.0.0 Safari/537.36" version="24.7.17">
  <diagram name="Page-1" id="E8V4ipmk5FmxSRd7JrBa">
    <mxGraphModel dx="1290" dy="522" grid="1" gridSize="10" guides="1" tooltips="1" connect="1" arrows="1" fold="1" page="1" pageScale="1" pageWidth="827" pageHeight="1169" math="0" shadow="0">
      <root>
        <mxCell id="0" />
        <mxCell id="1" parent="0" />
        <mxCell id="nGMRe3ukWD27pqJhrwXf-1" value="" style="whiteSpace=wrap;html=1;aspect=fixed;" parent="1" vertex="1">
          <mxGeometry x="102" y="210" width="460" height="460" as="geometry" />
        </mxCell>
        <mxCell id="8D9MqPx99Be88WfMyFPL-1" value="Student" style="shape=umlActor;verticalLabelPosition=bottom;verticalAlign=top;html=1;outlineConnect=0;" parent="1" vertex="1">
          <mxGeometry x="20" y="480" width="30" height="60" as="geometry" />
        </mxCell>
        <mxCell id="8D9MqPx99Be88WfMyFPL-2" value="Vendor" style="shape=umlActor;verticalLabelPosition=bottom;verticalAlign=top;html=1;outlineConnect=0;" parent="1" vertex="1">
          <mxGeometry x="652" y="460" width="30" height="60" as="geometry" />
        </mxCell>
        <mxCell id="8D9MqPx99Be88WfMyFPL-3" value="Upload Documents" style="ellipse;whiteSpace=wrap;html=1;" parent="1" vertex="1">
          <mxGeometry x="120" y="310" width="140" height="70" as="geometry" />
        </mxCell>
        <mxCell id="8D9MqPx99Be88WfMyFPL-4" value="Make Payment" style="ellipse;whiteSpace=wrap;html=1;" parent="1" vertex="1">
          <mxGeometry x="120" y="420" width="140" height="70" as="geometry" />
        </mxCell>
        <mxCell id="8D9MqPx99Be88WfMyFPL-5" value="Collect Prints" style="ellipse;whiteSpace=wrap;html=1;" parent="1" vertex="1">
          <mxGeometry x="120" y="530" width="140" height="70" as="geometry" />
        </mxCell>
        <mxCell id="8D9MqPx99Be88WfMyFPL-6" value="Manages Print Jobs" style="ellipse;whiteSpace=wrap;html=1;" parent="1" vertex="1">
          <mxGeometry x="392" y="310" width="140" height="70" as="geometry" />
        </mxCell>
        <mxCell id="8D9MqPx99Be88WfMyFPL-7" value="Approve Prints" style="ellipse;whiteSpace=wrap;html=1;" parent="1" vertex="1">
          <mxGeometry x="392" y="420" width="140" height="70" as="geometry" />
        </mxCell>
        <mxCell id="8D9MqPx99Be88WfMyFPL-8" value="Maintains Printer Configurations" style="ellipse;whiteSpace=wrap;html=1;" parent="1" vertex="1">
          <mxGeometry x="392" y="530" width="140" height="70" as="geometry" />
        </mxCell>
        <mxCell id="8D9MqPx99Be88WfMyFPL-9" value="Login" style="ellipse;whiteSpace=wrap;html=1;" parent="1" vertex="1">
          <mxGeometry x="290" y="370" width="104" height="60" as="geometry" />
        </mxCell>
        <mxCell id="8D9MqPx99Be88WfMyFPL-10" value="Word Document Parsing" style="ellipse;whiteSpace=wrap;html=1;" parent="1" vertex="1">
          <mxGeometry x="280" y="250" width="104" height="60" as="geometry" />
        </mxCell>
        <mxCell id="8D9MqPx99Be88WfMyFPL-15" value="Includes" style="endArrow=open;endSize=12;dashed=1;html=1;rounded=0;exitX=1;exitY=0.5;exitDx=0;exitDy=0;" parent="1" edge="1">
          <mxGeometry width="160" relative="1" as="geometry">
            <mxPoint x="260" y="345" as="sourcePoint" />
            <mxPoint x="290" y="400" as="targetPoint" />
            <Array as="points">
              <mxPoint x="260" y="400" />
            </Array>
          </mxGeometry>
        </mxCell>
        <mxCell id="8D9MqPx99Be88WfMyFPL-16" value="Includes" style="endArrow=open;endSize=12;dashed=1;html=1;rounded=0;exitX=1;exitY=0.5;exitDx=0;exitDy=0;entryX=0.5;entryY=1;entryDx=0;entryDy=0;" parent="1" source="8D9MqPx99Be88WfMyFPL-4" target="8D9MqPx99Be88WfMyFPL-9" edge="1">
          <mxGeometry width="160" relative="1" as="geometry">
            <mxPoint x="270" y="355" as="sourcePoint" />
            <mxPoint x="300" y="410" as="targetPoint" />
            <Array as="points">
              <mxPoint x="342" y="455" />
            </Array>
          </mxGeometry>
        </mxCell>
        <mxCell id="8D9MqPx99Be88WfMyFPL-17" value="Extends" style="endArrow=open;endSize=12;dashed=1;html=1;rounded=0;exitX=0;exitY=0.5;exitDx=0;exitDy=0;entryX=0.5;entryY=0;entryDx=0;entryDy=0;" parent="1" source="8D9MqPx99Be88WfMyFPL-10" target="8D9MqPx99Be88WfMyFPL-3" edge="1">
          <mxGeometry width="160" relative="1" as="geometry">
            <mxPoint x="270" y="465" as="sourcePoint" />
            <mxPoint x="352" y="440" as="targetPoint" />
            <Array as="points">
              <mxPoint x="190" y="280" />
            </Array>
          </mxGeometry>
        </mxCell>
        <mxCell id="8D9MqPx99Be88WfMyFPL-18" value="" style="endArrow=none;html=1;rounded=0;entryX=0;entryY=0.5;entryDx=0;entryDy=0;" parent="1" source="8D9MqPx99Be88WfMyFPL-1" target="8D9MqPx99Be88WfMyFPL-3" edge="1">
          <mxGeometry width="50" height="50" relative="1" as="geometry">
            <mxPoint x="380" y="510" as="sourcePoint" />
            <mxPoint x="430" y="460" as="targetPoint" />
          </mxGeometry>
        </mxCell>
        <mxCell id="8D9MqPx99Be88WfMyFPL-19" value="" style="endArrow=none;html=1;rounded=0;entryX=0;entryY=0.5;entryDx=0;entryDy=0;" parent="1" source="8D9MqPx99Be88WfMyFPL-1" target="8D9MqPx99Be88WfMyFPL-4" edge="1">
          <mxGeometry width="50" height="50" relative="1" as="geometry">
            <mxPoint x="60" y="491" as="sourcePoint" />
            <mxPoint x="130" y="355" as="targetPoint" />
          </mxGeometry>
        </mxCell>
        <mxCell id="8D9MqPx99Be88WfMyFPL-20" value="" style="endArrow=none;html=1;rounded=0;entryX=0;entryY=0.5;entryDx=0;entryDy=0;" parent="1" source="8D9MqPx99Be88WfMyFPL-1" target="8D9MqPx99Be88WfMyFPL-5" edge="1">
          <mxGeometry width="50" height="50" relative="1" as="geometry">
            <mxPoint x="70" y="501" as="sourcePoint" />
            <mxPoint x="140" y="365" as="targetPoint" />
          </mxGeometry>
        </mxCell>
        <mxCell id="8D9MqPx99Be88WfMyFPL-21" value="" style="endArrow=none;html=1;rounded=0;entryX=1;entryY=0.5;entryDx=0;entryDy=0;" parent="1" target="8D9MqPx99Be88WfMyFPL-6" edge="1">
          <mxGeometry width="50" height="50" relative="1" as="geometry">
            <mxPoint x="651" y="470" as="sourcePoint" />
            <mxPoint x="121" y="375" as="targetPoint" />
          </mxGeometry>
        </mxCell>
        <mxCell id="8D9MqPx99Be88WfMyFPL-22" value="" style="endArrow=none;html=1;rounded=0;entryX=1;entryY=0.5;entryDx=0;entryDy=0;exitX=0;exitY=0.3333333333333333;exitDx=0;exitDy=0;exitPerimeter=0;" parent="1" source="8D9MqPx99Be88WfMyFPL-2" target="8D9MqPx99Be88WfMyFPL-7" edge="1">
          <mxGeometry width="50" height="50" relative="1" as="geometry">
            <mxPoint x="661" y="480" as="sourcePoint" />
            <mxPoint x="542" y="355" as="targetPoint" />
          </mxGeometry>
        </mxCell>
        <mxCell id="8D9MqPx99Be88WfMyFPL-23" value="" style="endArrow=none;html=1;rounded=0;entryX=1;entryY=0.5;entryDx=0;entryDy=0;" parent="1" source="8D9MqPx99Be88WfMyFPL-2" target="8D9MqPx99Be88WfMyFPL-8" edge="1">
          <mxGeometry width="50" height="50" relative="1" as="geometry">
            <mxPoint x="651" y="490" as="sourcePoint" />
            <mxPoint x="552" y="365" as="targetPoint" />
          </mxGeometry>
        </mxCell>
      </root>
    </mxGraphModel>
  </diagram>
</mxfile>
